<mxfile host="app.diagrams.net" modified="2021-02-25T07:04:03.700Z" agent="5.0 (Windows NT 10.0; Win64; x64) AppleWebKit/537.36 (KHTML, like Gecko) Chrome/88.0.4324.190 Safari/537.36" etag="Gv2_HOQdYtDRnIDt_DTB" version="14.4.3" type="github">
  <diagram id="9GDHoGtVA2sNDeFaic3y" name="Page-1">
    <mxGraphModel dx="1346" dy="919" grid="1" gridSize="10" guides="1" tooltips="1" connect="1" arrows="1" fold="1" page="1" pageScale="1" pageWidth="1169" pageHeight="1654" math="0" shadow="0">
      <root>
        <mxCell id="0" />
        <mxCell id="1" parent="0" />
        <mxCell id="U0COn53X-ZD6y8blIEDc-2" value="" style="group" vertex="1" connectable="0" parent="1">
          <mxGeometry x="280" y="620" width="350" height="30" as="geometry" />
        </mxCell>
        <mxCell id="U0COn53X-ZD6y8blIEDc-3" value="" style="group" vertex="1" connectable="0" parent="U0COn53X-ZD6y8blIEDc-2">
          <mxGeometry width="350" height="30" as="geometry" />
        </mxCell>
        <mxCell id="U0COn53X-ZD6y8blIEDc-4" value="" style="rounded=0;whiteSpace=wrap;html=1;fillColor=none;fontSize=16;" vertex="1" parent="U0COn53X-ZD6y8blIEDc-3">
          <mxGeometry width="350" height="30" as="geometry" />
        </mxCell>
        <mxCell id="U0COn53X-ZD6y8blIEDc-5" value="" style="endArrow=none;html=1;fontSize=16;" edge="1" parent="U0COn53X-ZD6y8blIEDc-3">
          <mxGeometry width="50" height="50" relative="1" as="geometry">
            <mxPoint x="45" y="30" as="sourcePoint" />
            <mxPoint x="45" as="targetPoint" />
          </mxGeometry>
        </mxCell>
        <mxCell id="U0COn53X-ZD6y8blIEDc-6" value="" style="endArrow=none;html=1;fontSize=16;" edge="1" parent="U0COn53X-ZD6y8blIEDc-3">
          <mxGeometry width="50" height="50" relative="1" as="geometry">
            <mxPoint x="160" y="30" as="sourcePoint" />
            <mxPoint x="160" as="targetPoint" />
          </mxGeometry>
        </mxCell>
        <mxCell id="U0COn53X-ZD6y8blIEDc-7" value="" style="endArrow=none;html=1;fontSize=16;" edge="1" parent="U0COn53X-ZD6y8blIEDc-3">
          <mxGeometry width="50" height="50" relative="1" as="geometry">
            <mxPoint x="310" y="30" as="sourcePoint" />
            <mxPoint x="310" as="targetPoint" />
          </mxGeometry>
        </mxCell>
        <mxCell id="U0COn53X-ZD6y8blIEDc-8" value="m&lt;sub&gt;1&lt;/sub&gt;" style="text;html=1;strokeColor=none;fillColor=none;align=center;verticalAlign=middle;whiteSpace=wrap;rounded=0;fontSize=16;" vertex="1" parent="U0COn53X-ZD6y8blIEDc-3">
          <mxGeometry x="5" y="5" width="40" height="20" as="geometry" />
        </mxCell>
        <mxCell id="U0COn53X-ZD6y8blIEDc-9" value="m&lt;sub&gt;j&lt;/sub&gt;" style="text;html=1;strokeColor=none;fillColor=none;align=center;verticalAlign=middle;whiteSpace=wrap;rounded=0;fontSize=16;" vertex="1" parent="U0COn53X-ZD6y8blIEDc-3">
          <mxGeometry x="163" y="5" width="40" height="20" as="geometry" />
        </mxCell>
        <mxCell id="U0COn53X-ZD6y8blIEDc-10" value="" style="endArrow=none;html=1;fontSize=16;" edge="1" parent="U0COn53X-ZD6y8blIEDc-2">
          <mxGeometry width="50" height="50" relative="1" as="geometry">
            <mxPoint x="204" y="30" as="sourcePoint" />
            <mxPoint x="204" as="targetPoint" />
          </mxGeometry>
        </mxCell>
      </root>
    </mxGraphModel>
  </diagram>
</mxfile>
